<svg width="793" height="243" viewBox="0 0 793 243" fill="none" xmlns="http://www.w3.org/2000/svg">
<path d="M316.611 193V60.8991H380.86C397.139 61.0325 409.149 64.1683 416.888 70.3063C424.627 76.3109 428.497 85.0509 428.497 96.5263C428.497 103.999 426.295 110.47 421.892 115.941C417.488 121.279 410.75 124.681 401.676 126.149V126.349C411.817 127.683 419.356 131.219 424.293 136.957C429.364 142.561 431.899 149.367 431.899 157.373C431.899 168.715 427.896 177.522 419.89 183.793C411.884 189.931 399.875 193 383.863 193H316.611ZM349.837 168.782H378.058C384.33 168.782 389 167.514 392.069 164.979C395.138 162.443 396.672 158.774 396.672 153.97C396.672 149.3 395.138 145.764 392.069 143.362C389 140.827 384.33 139.559 378.058 139.559H349.837V168.782ZM349.837 114.94H374.856C387.132 114.94 393.27 110.137 393.27 100.529C393.27 90.922 387.132 86.1184 374.856 86.1184H349.837V114.94ZM484.658 50.4912V158.974C484.658 163.377 485.392 166.513 486.86 168.381C488.328 170.249 490.796 171.183 494.266 171.183C496.267 171.183 497.935 171.05 499.269 170.783C500.604 170.516 502.205 170.116 504.073 169.582L501.871 189.998C499.47 191.465 496.334 192.666 492.464 193.6C488.595 194.535 484.792 195.002 481.055 195.002C470.381 195.002 462.641 192.533 457.838 187.596C453.034 182.659 450.632 174.586 450.632 163.377V50.4912H484.658ZM564.149 90.922C574.69 90.922 583.897 92.9903 591.77 97.1268C599.776 101.13 605.981 107.068 610.384 114.94C614.921 122.68 617.189 132.02 617.189 142.962C617.189 153.903 614.921 163.311 610.384 171.183C605.981 178.923 599.776 184.86 591.77 188.997C583.897 193 574.69 195.002 564.149 195.002C553.874 195.002 544.734 193 536.728 188.997C528.722 184.86 522.45 178.923 517.913 171.183C513.51 163.311 511.308 153.903 511.308 142.962C511.308 132.02 513.51 122.68 517.913 114.94C522.45 107.068 528.722 101.13 536.728 97.1268C544.734 92.9903 553.874 90.922 564.149 90.922ZM564.149 115.141C560.279 115.141 556.943 116.075 554.141 117.943C551.339 119.811 549.204 122.813 547.736 126.95C546.268 131.086 545.534 136.423 545.534 142.962C545.534 149.5 546.268 154.838 547.736 158.974C549.204 162.977 551.339 165.979 554.141 167.981C556.943 169.849 560.279 170.783 564.149 170.783C568.152 170.783 571.554 169.849 574.356 167.981C577.159 165.979 579.294 162.977 580.761 158.974C582.229 154.838 582.963 149.5 582.963 142.962C582.963 136.423 582.229 131.086 580.761 126.95C579.294 122.813 577.159 119.811 574.356 117.943C571.554 116.075 568.152 115.141 564.149 115.141ZM731.836 66.1031L734.638 88.9205C733.838 88.6536 733.037 88.5202 732.236 88.5202C731.436 88.3868 730.635 88.3201 729.835 88.3201C723.963 88.3201 719.56 89.7878 716.624 92.7234C713.822 95.5256 712.421 99.0616 712.421 103.332L700.412 98.9281C700.412 93.4573 701.413 88.1866 703.414 83.1161C705.416 78.0455 708.485 73.909 712.621 70.7066C716.891 67.5041 722.229 65.9029 728.634 65.9029C729.034 65.9029 729.501 65.9029 730.035 65.9029C730.702 65.9029 731.302 65.9696 731.836 66.1031ZM697.41 170.783C709.019 170.783 717.892 173.252 724.03 178.189C730.302 182.992 733.437 189.931 733.437 199.005C733.437 207.278 731.169 214.149 726.632 219.62C722.095 225.091 715.69 229.161 707.417 231.83C699.278 234.632 689.604 236.033 678.395 236.033C660.248 236.033 647.171 233.764 639.165 229.228C631.159 224.691 627.156 218.553 627.156 210.814C627.156 205.209 629.425 200.673 633.961 197.203C638.498 193.734 646.037 191.866 656.579 191.599L655.778 194.801C647.638 193.734 641.567 191.332 637.564 187.596C633.561 183.86 631.56 178.789 631.56 172.384C631.56 165.979 634.095 160.775 639.165 156.772C644.236 152.769 650.974 150.568 659.381 150.167L671.79 155.972H668.588C663.384 156.239 659.714 157.106 657.579 158.574C655.444 160.041 654.377 161.843 654.377 163.978C654.377 166.246 655.311 167.981 657.179 169.182C659.047 170.249 661.849 170.783 665.585 170.783H697.41ZM678.595 214.016C685 214.016 690.271 213.549 694.408 212.615C698.677 211.814 701.88 210.613 704.015 209.012C706.15 207.544 707.217 205.81 707.217 203.808C707.217 201.807 706.483 200.206 705.016 199.005C703.548 197.937 700.879 197.403 697.009 197.403H661.182C658.647 197.403 656.579 198.071 654.977 199.405C653.51 200.739 652.776 202.407 652.776 204.409C652.776 207.478 655.044 209.813 659.581 211.414C664.118 213.149 670.456 214.016 678.595 214.016ZM679.796 90.922C689.937 90.922 698.611 92.2564 705.816 94.9251C713.022 97.5938 718.493 101.463 722.229 106.534C726.098 111.471 728.033 117.609 728.033 124.948C728.033 132.154 726.098 138.292 722.229 143.362C718.493 148.433 713.022 152.302 705.816 154.971C698.611 157.506 689.937 158.774 679.796 158.774C663.918 158.774 651.842 155.838 643.569 149.967C635.429 144.096 631.359 135.756 631.359 124.948C631.359 117.609 633.227 111.471 636.964 106.534C640.833 101.463 646.371 97.5938 653.576 94.9251C660.782 92.2564 669.522 90.922 679.796 90.922ZM679.796 110.337C675.393 110.337 671.79 111.604 668.988 114.14C666.319 116.675 664.985 120.278 664.985 124.948C664.985 129.485 666.319 133.021 668.988 135.556C671.79 138.091 675.393 139.359 679.796 139.359C684.066 139.359 687.602 138.091 690.404 135.556C693.207 133.021 694.608 129.485 694.608 124.948C694.608 120.278 693.207 116.675 690.404 114.14C687.602 111.604 684.066 110.337 679.796 110.337ZM763.775 158.574C770.046 158.574 774.916 160.175 778.386 163.377C781.988 166.58 783.79 171.05 783.79 176.788C783.79 182.392 781.988 186.795 778.386 189.998C774.916 193.2 770.046 194.801 763.775 194.801C757.637 194.801 752.766 193.2 749.163 189.998C745.561 186.795 743.759 182.392 743.759 176.788C743.759 171.05 745.561 166.58 749.163 163.377C752.766 160.175 757.637 158.574 763.775 158.574Z" fill="black"/>
<path d="M132.711 52.8564C132.711 45.3198 132.394 37.7606 132.779 30.224C133.571 15.2187 143.507 3.74407 157.901 0.666055C171.435 -2.2309 185.852 4.53618 192.28 16.803C199.069 29.794 196.829 45.0935 185.581 55.0518C174.581 64.7837 162.835 73.6782 151.315 82.8217C145.974 87.054 140.633 91.6937 146.472 98.5739C152.22 105.341 157.924 100.837 163.129 96.6502C173.427 88.3893 183.612 79.9927 194.09 71.9808C208.032 61.2983 223.422 61.2531 235.598 71.415C246.62 80.6264 250.038 96.3786 243.836 109.437C237.364 123.062 223.422 129.603 206.81 126.231C193.14 123.447 179.56 120.233 166.026 116.906C159.304 115.254 153.397 115.684 151.836 123.402C150.387 130.576 155.774 133.156 161.794 134.537C175.758 137.751 189.768 140.783 203.596 144.427C219.62 148.637 228.582 159.976 228.582 175.094C228.582 189.918 219.054 202.366 205.022 205.897C190.311 209.586 176.731 203.769 169.014 189.353C161.884 176.067 155.502 162.397 149.188 148.705C144.005 137.456 136.219 130.124 123.296 130.327C110.486 130.531 102.655 137.728 97.5857 149.09C91.9049 161.832 85.7942 174.37 79.5703 186.863C71.7168 202.615 58.2958 209.45 42.6568 206.078C28.7831 203.068 18.4401 190.281 18.2138 175.886C17.9874 160.134 27.5383 148.32 44.7842 143.907C57.9337 140.534 71.2415 137.841 84.4589 134.763C90.6828 133.315 96.7935 131.006 94.8924 122.949C93.0139 114.937 86.7447 115.548 80.385 117.065C67.1677 120.165 53.9504 123.243 40.6878 126.072C23.7587 129.693 9.38711 123.017 2.8916 108.804C-3.15125 95.5864 0.492572 80.1511 11.8088 71.0076C24.0077 61.1399 39.5335 61.4794 53.3619 72.2298C64.0897 80.5585 74.6364 89.091 85.1605 97.6686C90.3886 101.924 96.0693 104.458 100.935 98.2571C106.005 91.8068 101.297 87.2351 96.2504 83.2291C85.6131 74.8099 74.908 66.4359 64.4518 57.7903C51.1439 46.7909 47.4322 31.4009 54.3804 17.414C60.6722 4.71725 75.8133 -2.43459 89.5512 0.801844C104.986 4.44566 114.243 16.6445 114.492 34.1394C114.673 47.7189 114.583 61.2983 114.492 74.8778C114.447 81.5543 115.85 87.733 123.794 87.5067C131.647 87.2803 132.824 80.9433 132.711 74.3572C132.598 67.2054 132.689 60.0309 132.689 52.8564C132.734 52.8564 132.756 52.8564 132.802 52.8564H132.711Z" fill="black"/>
<path d="M123.251 242.38C101.275 242.312 85.5226 220.359 93.8287 199.922C100.754 182.925 109.309 166.562 117.48 150.085C121.259 142.458 125.899 143.182 129.452 150.357C137.441 166.494 145.929 182.472 152.741 199.107C161.386 220.223 145.725 242.471 123.251 242.38Z" fill="#008443"/>
</svg>
