<svg width="468" height="187" viewBox="0 0 468 187" fill="none" xmlns="http://www.w3.org/2000/svg">
<path d="M0.61116 143V10.8991H64.8602C81.1393 11.0325 93.1485 14.1683 100.888 20.3063C108.627 26.3109 112.497 35.0509 112.497 46.5263C112.497 53.9987 110.295 60.4703 105.892 65.9411C101.488 71.2786 94.7497 74.6812 85.6761 76.1489V76.3491C95.8172 77.6834 103.356 81.2195 108.293 86.9572C113.364 92.5615 115.899 99.3667 115.899 107.373C115.899 118.715 111.896 127.522 103.89 133.793C95.8839 139.931 83.8748 143 67.8625 143H0.61116ZM33.8365 118.782H62.0581C68.3295 118.782 72.9998 117.514 76.0688 114.979C79.1378 112.443 80.6723 108.774 80.6723 103.97C80.6723 99.3 79.1378 95.7639 76.0688 93.3621C72.9998 90.8268 68.3295 89.5592 62.0581 89.5592H33.8365V118.782ZM33.8365 64.9404H58.8556C71.1317 64.9404 77.2697 60.1367 77.2697 50.5294C77.2697 40.922 71.1317 36.1184 58.8556 36.1184H33.8365V64.9404ZM168.658 0.491159V108.974C168.658 113.377 169.392 116.513 170.86 118.381C172.328 120.249 174.796 121.183 178.266 121.183C180.267 121.183 181.935 121.05 183.269 120.783C184.604 120.516 186.205 120.116 188.073 119.582L185.871 139.998C183.47 141.465 180.334 142.666 176.464 143.6C172.595 144.535 168.792 145.002 165.055 145.002C154.381 145.002 146.641 142.533 141.838 137.596C137.034 132.659 134.632 124.586 134.632 113.377V0.491159H168.658ZM248.149 40.922C258.69 40.922 267.897 42.9903 275.77 47.1268C283.776 51.1298 289.981 57.0677 294.384 64.9404C298.921 72.6796 301.189 82.0201 301.189 92.9618C301.189 103.903 298.921 113.311 294.384 121.183C289.981 128.923 283.776 134.86 275.77 138.997C267.897 143 258.69 145.002 248.149 145.002C237.874 145.002 228.734 143 220.728 138.997C212.722 134.86 206.45 128.923 201.913 121.183C197.51 113.311 195.308 103.903 195.308 92.9618C195.308 82.0201 197.51 72.6796 201.913 64.9404C206.45 57.0677 212.722 51.1298 220.728 47.1268C228.734 42.9903 237.874 40.922 248.149 40.922ZM248.149 65.1405C244.279 65.1405 240.943 66.0746 238.141 67.9427C235.339 69.8108 233.204 72.8131 231.736 76.9496C230.268 81.086 229.534 86.4235 229.534 92.9618C229.534 99.5001 230.268 104.838 231.736 108.974C233.204 112.977 235.339 115.979 238.141 117.981C240.943 119.849 244.279 120.783 248.149 120.783C252.152 120.783 255.554 119.849 258.356 117.981C261.159 115.979 263.294 112.977 264.761 108.974C266.229 104.838 266.963 99.5001 266.963 92.9618C266.963 86.4235 266.229 81.086 264.761 76.9496C263.294 72.8131 261.159 69.8108 258.356 67.9427C255.554 66.0746 252.152 65.1405 248.149 65.1405ZM415.836 16.1031L418.638 38.9205C417.838 38.6536 417.037 38.5202 416.236 38.5202C415.436 38.3868 414.635 38.3201 413.835 38.3201C407.963 38.3201 403.56 39.7878 400.624 42.7234C397.822 45.5256 396.421 49.0616 396.421 53.3315L384.412 48.9281C384.412 43.4573 385.413 38.1866 387.414 33.1161C389.416 28.0455 392.485 23.909 396.621 20.7066C400.891 17.5041 406.229 15.9029 412.634 15.9029C413.034 15.9029 413.501 15.9029 414.035 15.9029C414.702 15.9029 415.302 15.9696 415.836 16.1031ZM381.41 120.783C393.019 120.783 401.892 123.252 408.03 128.189C414.302 132.992 417.437 139.931 417.437 149.005C417.437 157.278 415.169 164.149 410.632 169.62C406.095 175.091 399.69 179.161 391.417 181.83C383.278 184.632 373.604 186.033 362.395 186.033C344.248 186.033 331.171 183.764 323.165 179.228C315.159 174.691 311.156 168.553 311.156 160.814C311.156 155.209 313.425 150.673 317.961 147.203C322.498 143.734 330.037 141.866 340.579 141.599L339.778 144.801C331.638 143.734 325.567 141.332 321.564 137.596C317.561 133.86 315.56 128.789 315.56 122.384C315.56 115.979 318.095 110.775 323.165 106.772C328.236 102.769 334.974 100.568 343.381 100.167L355.79 105.972H352.588C347.384 106.239 343.714 107.106 341.579 108.574C339.444 110.041 338.377 111.843 338.377 113.978C338.377 116.246 339.311 117.981 341.179 119.182C343.047 120.249 345.849 120.783 349.585 120.783H381.41ZM362.595 164.016C369 164.016 374.271 163.549 378.408 162.615C382.677 161.814 385.88 160.613 388.015 159.012C390.15 157.544 391.217 155.81 391.217 153.808C391.217 151.807 390.483 150.206 389.016 149.005C387.548 147.937 384.879 147.403 381.009 147.403H345.182C342.647 147.403 340.579 148.071 338.977 149.405C337.51 150.739 336.776 152.407 336.776 154.409C336.776 157.478 339.044 159.813 343.581 161.414C348.118 163.149 354.456 164.016 362.595 164.016ZM363.796 40.922C373.937 40.922 382.611 42.2564 389.816 44.9251C397.022 47.5938 402.493 51.4634 406.229 56.534C410.098 61.4711 412.033 67.6091 412.033 74.948C412.033 82.1535 410.098 88.2915 406.229 93.3621C402.493 98.4326 397.022 102.302 389.816 104.971C382.611 107.506 373.937 108.774 363.796 108.774C347.918 108.774 335.842 105.838 327.569 99.9671C319.429 94.096 315.359 85.7563 315.359 74.948C315.359 67.6091 317.227 61.4711 320.964 56.534C324.833 51.4634 330.371 47.5938 337.576 44.9251C344.782 42.2564 353.522 40.922 363.796 40.922ZM363.796 60.3369C359.393 60.3369 355.79 61.6045 352.988 64.1398C350.319 66.675 348.985 70.2778 348.985 74.948C348.985 79.4848 350.319 83.0209 352.988 85.5561C355.79 88.0914 359.393 89.359 363.796 89.359C368.066 89.359 371.602 88.0914 374.404 85.5561C377.207 83.0209 378.608 79.4848 378.608 74.948C378.608 70.2778 377.207 66.675 374.404 64.1398C371.602 61.6045 368.066 60.3369 363.796 60.3369ZM447.775 108.574C454.046 108.574 458.916 110.175 462.386 113.377C465.988 116.58 467.79 121.05 467.79 126.788C467.79 132.392 465.988 136.795 462.386 139.998C458.916 143.2 454.046 144.801 447.775 144.801C441.637 144.801 436.766 143.2 433.163 139.998C429.561 136.795 427.759 132.392 427.759 126.788C427.759 121.05 429.561 116.58 433.163 113.377C436.766 110.175 441.637 108.574 447.775 108.574Z" fill="#020003"/>
</svg>
