<svg width="247" height="243" viewBox="0 0 247 243" fill="none" xmlns="http://www.w3.org/2000/svg">
<path d="M132.711 52.8564C132.711 45.3198 132.394 37.7606 132.779 30.224C133.571 15.2187 143.507 3.74407 157.901 0.666055C171.435 -2.2309 185.852 4.53618 192.28 16.803C199.069 29.794 196.829 45.0935 185.581 55.0518C174.581 64.7837 162.835 73.6782 151.315 82.8217C145.974 87.054 140.633 91.6937 146.472 98.5739C152.22 105.341 157.924 100.837 163.129 96.6502C173.427 88.3893 183.612 79.9927 194.09 71.9808C208.032 61.2983 223.422 61.2531 235.598 71.415C246.62 80.6264 250.038 96.3786 243.836 109.437C237.364 123.062 223.422 129.603 206.81 126.231C193.14 123.447 179.56 120.233 166.026 116.906C159.304 115.254 153.397 115.684 151.836 123.402C150.387 130.576 155.774 133.156 161.794 134.537C175.758 137.751 189.768 140.783 203.596 144.427C219.62 148.637 228.582 159.976 228.582 175.094C228.582 189.918 219.054 202.366 205.022 205.897C190.311 209.586 176.731 203.769 169.014 189.353C161.884 176.067 155.502 162.397 149.188 148.705C144.005 137.456 136.219 130.124 123.296 130.327C110.486 130.531 102.655 137.728 97.5857 149.09C91.9049 161.832 85.7942 174.37 79.5703 186.863C71.7168 202.615 58.2958 209.45 42.6568 206.078C28.7831 203.068 18.4401 190.281 18.2138 175.886C17.9874 160.134 27.5383 148.32 44.7842 143.907C57.9337 140.534 71.2415 137.841 84.4589 134.763C90.6828 133.315 96.7935 131.006 94.8924 122.949C93.0139 114.937 86.7447 115.548 80.385 117.065C67.1677 120.165 53.9504 123.243 40.6878 126.072C23.7587 129.693 9.38711 123.017 2.8916 108.804C-3.15125 95.5865 0.492572 80.1511 11.8088 71.0076C24.0077 61.1399 39.5335 61.4794 53.3619 72.2298C64.0897 80.5585 74.6364 89.0909 85.1605 97.6686C90.3886 101.924 96.0693 104.458 100.935 98.2571C106.005 91.8068 101.297 87.2351 96.2504 83.2291C85.6131 74.8099 74.908 66.4359 64.4518 57.7903C51.1439 46.7909 47.4322 31.4009 54.3804 17.414C60.6722 4.71725 75.8133 -2.43459 89.5512 0.801844C104.986 4.44566 114.243 16.6445 114.492 34.1394C114.673 47.7189 114.583 61.2983 114.492 74.8778C114.447 81.5543 115.85 87.733 123.794 87.5067C131.647 87.2803 132.824 80.9433 132.711 74.3572C132.598 67.2054 132.689 60.0309 132.689 52.8564C132.734 52.8564 132.756 52.8564 132.802 52.8564H132.711Z" fill="black"/>
<path d="M123.251 242.38C101.275 242.312 85.5226 220.359 93.8287 199.922C100.754 182.925 109.309 166.562 117.48 150.085C121.259 142.458 125.899 143.182 129.452 150.357C137.441 166.494 145.929 182.472 152.741 199.107C161.386 220.223 145.725 242.471 123.251 242.38Z" fill="#008443"/>
</svg>
