<svg width="512" height="512" viewBox="0 0 512 512" fill="none" xmlns="http://www.w3.org/2000/svg">
<path d="M275.198 111.653C275.198 95.7328 274.541 79.7648 275.339 63.8446C276.982 32.1477 297.585 7.9089 327.434 1.40696C355.499 -4.7125 385.395 9.58214 398.723 35.4943C412.803 62.9362 408.157 95.2547 384.832 116.29C362.023 136.848 337.665 155.637 313.776 174.951C302.7 183.891 291.625 193.692 303.733 208.226C315.654 222.52 327.481 213.007 338.275 204.162C359.629 186.712 380.748 168.975 402.478 152.051C431.388 129.485 463.302 129.39 488.551 150.856C511.407 170.314 518.494 203.588 505.635 231.174C492.212 259.954 463.302 273.771 428.854 266.648C400.507 260.767 372.348 253.978 344.282 246.951C330.343 243.461 318.094 244.369 314.856 260.672C311.852 275.827 323.022 281.277 335.506 284.193C364.463 290.982 393.514 297.388 422.189 305.085C455.417 313.978 474.002 337.93 474.002 369.866C474.002 401.18 454.244 427.475 425.146 434.933C394.64 442.726 366.481 430.439 350.477 399.985C335.694 371.921 322.459 343.045 309.365 314.121C298.617 290.36 282.473 274.871 255.675 275.301C229.111 275.731 212.873 290.934 202.36 314.934C190.58 341.85 177.908 368.336 165.002 394.726C148.717 428.001 120.886 442.439 88.4558 435.315C59.6865 428.957 38.2385 401.945 37.7692 371.539C37.2999 338.264 57.1052 313.308 92.8674 303.986C120.135 296.862 147.731 291.173 175.139 284.671C188.046 281.611 200.717 276.735 196.775 259.715C192.88 242.791 179.879 244.082 166.691 247.285C139.283 253.835 111.875 260.337 84.3727 266.313C49.2676 273.962 19.4657 259.859 5.99621 229.835C-6.53464 201.915 1.02143 169.31 24.4874 149.995C49.7838 129.151 81.9792 129.868 110.655 152.577C132.9 170.17 154.771 188.194 176.594 206.313C187.435 215.301 199.215 220.656 209.306 207.556C219.819 193.931 210.057 184.274 199.591 175.812C177.533 158.027 155.334 140.338 133.651 122.075C106.055 98.8403 98.3584 66.3306 112.767 36.7851C125.814 9.96462 157.211 -5.14279 185.699 1.6938C217.707 9.39094 236.902 35.1596 237.418 72.1154C237.794 100.8 237.606 129.485 237.418 158.17C237.324 172.274 240.234 185.326 256.707 184.847C272.993 184.369 275.433 170.983 275.198 157.071C274.964 141.963 275.151 126.808 275.151 111.653C275.245 111.653 275.292 111.653 275.386 111.653H275.198Z" fill="#020003"/>
<path d="M255.581 512C210.01 511.856 177.345 465.482 194.569 422.311C208.93 386.407 226.671 351.842 243.613 317.037C251.451 300.926 261.072 302.456 268.44 317.611C285.007 351.698 302.607 385.451 316.733 420.59C334.661 465.195 302.184 512.191 255.581 512Z" fill="#008443"/>
</svg>
